<svg width="1920" height="1080" viewBox="0 0 1920 1080" fill="none" xmlns="http://www.w3.org/2000/svg">
<g clip-path="url(#clip0_1_30)">
<rect width="1920" height="1080" fill="url(#paint0_linear_1_30)"/>
<g filter="url(#filter0_f_1_30)">
<path d="M1720.89 1112.87C1486.57 1238.24 1210.03 1178.03 1103.21 978.378C996.387 778.73 1099.75 515.25 1334.07 389.88C1568.39 264.51 1844.93 324.724 1951.75 524.373C2058.57 724.021 1955.21 987.501 1720.89 1112.87Z" fill="url(#paint1_linear_1_30)"/>
</g>
<g filter="url(#filter1_f_1_30)">
<ellipse cx="1130.79" cy="933.999" rx="264.689" ry="345.123" transform="rotate(84.1598 1130.79 933.999)" fill="url(#paint2_linear_1_30)"/>
</g>
<g filter="url(#filter2_f_1_30)">
<circle cx="1467.75" cy="1137.14" r="203.727" transform="rotate(-15.0384 1467.75 1137.14)" fill="url(#paint3_linear_1_30)"/>
</g>
<g filter="url(#filter3_f_1_30)">
<ellipse cx="1402.49" cy="732.077" rx="255.012" ry="374.227" transform="rotate(84.1598 1402.49 732.077)" fill="url(#paint4_linear_1_30)"/>
</g>
<path d="M-423.799 -117.806C-466.897 -273.979 -307.246 -289.876 -192.03 -242.72C-124.807 -218.468 -80.6611 -293.889 2.61499 -263.789C85.8911 -233.69 -13.9397 -138.875 113.483 -90.2139C240.905 -41.5526 178.699 176.169 67.3295 178.677C-44.0397 181.186 -13.4383 217.807 -124.807 301.585C-236.177 385.363 -423.799 268.977 -377.144 146.069C-330.489 23.1618 -377.145 51.255 -423.799 -117.806Z" stroke="white" stroke-opacity="0.08" stroke-width="1.38754"/>
<path d="M-402.011 -107.515C-441.643 -250.843 -294.388 -267.476 -187.944 -223.676C-125.273 -200.776 -83.5526 -269.916 -6.79813 -242.173C71.6689 -213.809 -20.1021 -127.084 96.9709 -81.6582C214.312 -35.9746 158.477 165.741 53.7789 168.021C-50.3061 170.301 -21.6367 204.973 -125.008 281.746C-228.38 358.519 -401.357 251.673 -358.944 137.2C-316.531 24.437 -358.845 48.4286 -402.011 -107.515Z" stroke="white" stroke-opacity="0.08" stroke-width="1.38754"/>
<path d="M-380.225 -97.2241C-416.391 -227.707 -281.533 -245.076 -183.86 -204.632C-125.742 -183.084 -86.4466 -245.943 -16.2138 -220.556C57.4441 -193.927 -26.2671 -115.293 80.4565 -73.1021C187.716 -30.3961 138.253 155.313 40.2258 157.365C-56.5749 159.418 -29.8377 192.14 -125.212 261.908C-220.585 331.675 -378.918 234.37 -340.746 128.331C-302.574 25.7126 -340.548 45.6027 -380.225 -97.2241Z" stroke="white" stroke-opacity="0.08" stroke-width="1.38754"/>
<path d="M-358.436 -86.9326C-391.136 -204.57 -268.674 -222.676 -179.773 -185.587C-126.206 -165.392 -89.3366 -221.969 -25.6254 -198.938C43.2234 -174.045 -32.4281 -103.501 63.9461 -64.5454C161.123 -24.8171 118.033 144.886 26.6768 146.71C-62.8398 148.534 -38.0347 179.307 -125.411 242.07C-212.787 304.832 -356.475 217.067 -322.545 119.462C-288.614 26.9886 -322.246 42.7772 -358.436 -86.9326Z" stroke="white" stroke-opacity="0.08" stroke-width="1.38754"/>
<path d="M-336.65 -76.6402C-365.885 -181.433 -255.819 -200.275 -175.689 -166.542C-126.675 -147.699 -92.231 -197.994 -35.0414 -177.32C28.9982 -154.163 -38.5934 -91.7077 47.4313 -55.988C134.527 -19.2374 97.8081 134.459 13.1233 136.056C-69.1089 137.652 -46.236 166.474 -125.614 222.232C-204.993 277.99 -334.036 199.765 -304.347 110.594C-274.658 28.2655 -303.95 39.9526 -336.65 -76.6402Z" stroke="white" stroke-opacity="0.08" stroke-width="1.38754"/>
<path d="M-314.862 -65.8266C-340.63 -157.774 -242.96 -177.352 -171.603 -146.975C-127.14 -129.484 -95.1218 -173.498 -44.4538 -155.18C14.7767 -133.759 -44.7552 -79.3936 30.9201 -46.9092C107.934 -13.1362 77.5872 124.554 -0.426514 125.922C-75.3745 127.291 -54.4337 154.163 -125.814 202.916C-197.195 251.67 -311.594 182.984 -286.146 102.248C-260.698 30.0638 -285.649 37.6493 -314.862 -65.8266Z" stroke="white" stroke-opacity="0.08" stroke-width="1.38754"/>
<path d="M-293.072 -54.3961C-315.375 -133.498 -230.102 -153.812 -167.515 -126.792C-127.605 -110.653 -98.0122 -148.385 -53.8659 -132.423C0.555542 -112.738 -50.9166 -66.4625 14.4093 -37.2135C81.3415 -6.41824 57.3665 115.266 -13.976 116.406C-81.6398 117.546 -62.6311 142.469 -126.014 184.217C-189.397 225.966 -289.152 166.82 -267.945 94.5179C-246.738 32.4789 -267.348 35.9628 -293.072 -54.3961Z" stroke="white" stroke-opacity="0.08" stroke-width="1.38754"/>
<path d="M-271.285 -42.9312C-290.122 -109.187 -217.245 -130.239 -163.43 -106.574C-128.072 -91.7871 -100.905 -123.238 -63.28 -109.632C-13.6677 -91.6826 -57.0801 -53.4971 -2.10364 -27.4835C54.7468 0.334076 37.1438 106.012 -27.5277 106.924C-87.9072 107.836 -70.8306 130.81 -126.216 165.553C-181.601 200.296 -266.711 150.691 -249.746 86.8226C-232.78 34.9284 -249.05 34.3107 -271.285 -42.9312Z" stroke="white" stroke-opacity="0.08" stroke-width="1.38754"/>
<path d="M-249.494 -31.417C-264.865 -84.8278 -204.384 -106.615 -159.341 -86.3064C-128.535 -72.872 -103.793 -98.0413 -72.6901 -86.7917C-27.8869 -70.5779 -63.2395 -40.4823 -18.6125 -17.7041C28.1562 7.13578 16.9251 96.8076 -41.0752 97.4917C-94.1705 98.1758 -79.026 119.199 -126.414 146.938C-173.801 174.676 -244.267 134.611 -231.543 79.1767C-218.819 37.4272 -230.747 32.708 -249.494 -31.417Z" stroke="white" stroke-opacity="0.08" stroke-width="1.38754"/>
</g>
<defs>
<filter id="filter0_f_1_30" x="746.057" y="9.42999" width="1562.85" height="1483.89" filterUnits="userSpaceOnUse" color-interpolation-filters="sRGB">
<feFlood flood-opacity="0" result="BackgroundImageFix"/>
<feBlend mode="normal" in="SourceGraphic" in2="BackgroundImageFix" result="shape"/>
<feGaussianBlur stdDeviation="157.515" result="effect1_foregroundBlur_1_30"/>
</filter>
<filter id="filter1_f_1_30" x="370.8" y="252.738" width="1519.98" height="1362.52" filterUnits="userSpaceOnUse" color-interpolation-filters="sRGB">
<feFlood flood-opacity="0" result="BackgroundImageFix"/>
<feBlend mode="normal" in="SourceGraphic" in2="BackgroundImageFix" result="shape"/>
<feGaussianBlur stdDeviation="207.792" result="effect1_foregroundBlur_1_30"/>
</filter>
<filter id="filter2_f_1_30" x="848.388" y="517.775" width="1238.73" height="1238.73" filterUnits="userSpaceOnUse" color-interpolation-filters="sRGB">
<feFlood flood-opacity="0" result="BackgroundImageFix"/>
<feBlend mode="normal" in="SourceGraphic" in2="BackgroundImageFix" result="shape"/>
<feGaussianBlur stdDeviation="207.792" result="effect1_foregroundBlur_1_30"/>
</filter>
<filter id="filter3_f_1_30" x="806.583" y="252.808" width="1191.81" height="958.538" filterUnits="userSpaceOnUse" color-interpolation-filters="sRGB">
<feFlood flood-opacity="0" result="BackgroundImageFix"/>
<feBlend mode="normal" in="SourceGraphic" in2="BackgroundImageFix" result="shape"/>
<feGaussianBlur stdDeviation="111.352" result="effect1_foregroundBlur_1_30"/>
</filter>
<linearGradient id="paint0_linear_1_30" x1="7.99999" y1="6.00001" x2="1920" y2="1080" gradientUnits="userSpaceOnUse">
<stop stop-color="#1F1F1F"/>
<stop offset="1"/>
</linearGradient>
<linearGradient id="paint1_linear_1_30" x1="1680.76" y1="1158.94" x2="1237.79" y2="533.179" gradientUnits="userSpaceOnUse">
<stop stop-color="#7000FF"/>
<stop offset="1" stop-color="#06D2FF"/>
</linearGradient>
<linearGradient id="paint2_linear_1_30" x1="1130.79" y1="588.876" x2="1130.79" y2="1279.12" gradientUnits="userSpaceOnUse">
<stop stop-color="#FB0303"/>
<stop offset="1" stop-color="#CCFF00"/>
</linearGradient>
<linearGradient id="paint3_linear_1_30" x1="1467.75" y1="933.411" x2="1467.75" y2="1340.87" gradientUnits="userSpaceOnUse">
<stop stop-color="#2603FB"/>
<stop offset="1" stop-color="#DC06FF"/>
</linearGradient>
<linearGradient id="paint4_linear_1_30" x1="1402.49" y1="357.85" x2="1402.49" y2="1106.3" gradientUnits="userSpaceOnUse">
<stop stop-color="#7F03FB"/>
<stop offset="1" stop-color="#DF9CFF"/>
</linearGradient>
<clipPath id="clip0_1_30">
<rect width="1920" height="1080" fill="white"/>
</clipPath>
</defs>
</svg>
